<?xml version="1.0" standalone="no"?>
<!DOCTYPE svg PUBLIC "-//W3C//DTD SVG 20010904//EN"
 "http://www.w3.org/TR/2001/REC-SVG-20010904/DTD/svg10.dtd">
<svg version="1.0" xmlns="http://www.w3.org/2000/svg"
 width="370.000000pt" height="536.000000pt" viewBox="0 0 370.000000 536.000000"
 preserveAspectRatio="xMidYMid meet">

<g transform="translate(0.000000,536.000000) scale(0.100000,-0.100000)"
fill="#000000" stroke="none">
<path d="M3470 5304 c0 -8 5 -12 10 -9 6 3 10 10 10 16 0 5 -4 9 -10 9 -5 0
-10 -7 -10 -16z"/>
<path d="M1642 3747 c-23 -27 -70 -164 -136 -394 -53 -185 -190 -482 -301
-654 l-43 -66 -143 -6 c-172 -9 -248 -25 -343 -75 -83 -43 -186 -137 -223
-201 -15 -25 -28 -48 -29 -50 -2 -2 -19 10 -39 28 -34 29 -64 39 -78 25 -11
-12 12 -42 58 -75 l45 -32 -6 -81 c-8 -103 7 -181 51 -273 45 -96 85 -154 164
-236 77 -80 138 -121 206 -138 28 -6 51 -13 53 -15 6 -4 -139 -317 -209 -453
-148 -284 -270 -476 -486 -764 -139 -186 -157 -213 -149 -233 6 -15 11 -13 37
12 53 50 377 478 620 819 100 140 276 403 374 560 38 61 74 116 80 123 9 10
25 3 78 -32 99 -64 190 -91 307 -90 52 0 112 5 133 11 32 10 38 9 46 -5 18
-34 83 -239 105 -332 20 -87 22 -107 14 -245 -15 -264 -15 -746 0 -780 l14
-30 19 23 c29 36 38 84 51 256 13 181 1 405 -31 586 -18 100 -18 118 -4 372
l15 268 72 72 c39 40 85 94 101 120 35 56 15 54 270 34 99 -8 250 -17 335 -21
256 -10 669 -35 760 -46 103 -12 145 -24 187 -57 29 -21 34 -22 39 -8 17 44
-80 88 -231 104 -96 11 -395 29 -855 52 -202 10 -442 28 -447 34 -2 2 6 38 17
81 27 104 25 183 -4 266 -27 78 -72 147 -137 209 l-46 45 18 235 c33 424 49
593 76 772 22 156 25 223 7 205 -3 -3 -12 -32 -19 -64 -22 -94 -213 -593 -347
-907 l-51 -118 -36 6 c-102 18 -229 36 -253 36 l-26 0 19 63 c11 34 53 177 94
317 41 140 97 317 125 393 70 193 115 346 103 358 -6 6 -14 5 -21 -4z m352
-477 c-7 -74 -25 -283 -39 -465 -15 -181 -28 -331 -29 -332 -2 -2 -27 7 -57
21 -30 13 -87 34 -126 47 -40 12 -73 27 -73 31 0 5 31 81 69 171 37 89 112
276 166 414 54 139 100 252 101 250 1 -1 -4 -63 -12 -137z m-640 -451 c-31
-101 -59 -186 -63 -189 -3 -3 -25 -3 -48 0 l-42 5 42 67 c23 36 69 120 102
187 32 66 60 119 62 118 1 -2 -23 -86 -53 -188z m-262 -285 c-79 -111 -242
-310 -305 -373 l-65 -63 -93 48 c-51 27 -113 68 -138 91 l-46 41 24 47 c47 89
202 204 320 235 65 17 155 27 254 29 l89 1 -40 -56z m184 39 c-3 -10 -28 -83
-54 -163 l-49 -145 -51 3 c-45 3 -54 1 -76 -23 -30 -32 -60 -110 -70 -177 -5
-30 -11 -46 -19 -43 -7 2 -51 15 -99 30 -49 14 -88 28 -88 32 0 3 28 35 61 71
73 77 188 221 277 345 l63 87 55 0 c48 0 55 -2 50 -17z m227 -12 c60 -11 110
-21 112 -23 2 -2 -47 -108 -110 -236 l-114 -232 -73 73 c-40 40 -84 80 -97 88
l-24 15 53 160 c29 87 55 162 57 167 7 12 82 7 196 -12z m258 -67 c143 -50
159 -59 159 -92 0 -15 -7 -138 -17 -274 -16 -238 -18 -248 -37 -248 -12 0 -97
8 -190 17 l-169 18 -48 63 -48 64 73 146 c40 81 90 185 111 232 36 78 53 110
60 110 2 0 50 -16 106 -36z m257 -149 c112 -127 140 -251 93 -420 -19 -69 -19
-69 -112 -61 -46 4 -84 8 -85 9 -2 1 6 119 17 262 10 143 19 261 19 263 1 13
27 -8 68 -53z m-878 -115 c17 -9 16 -16 -21 -116 -21 -59 -41 -109 -43 -112
-3 -2 -22 -1 -42 2 l-37 7 7 56 c7 64 41 149 65 163 21 12 48 12 71 0z m-666
-32 c42 -29 181 -157 175 -161 -63 -49 -156 -110 -168 -111 -27 -2 -50 87 -51
197 0 53 2 97 6 97 3 0 20 -10 38 -22z m833 -90 c72 -73 73 -75 28 -144 l-14
-22 -98 20 c-54 11 -102 24 -107 28 -5 5 8 55 30 114 l38 105 28 -17 c15 -9
58 -46 95 -84z m-628 -27 c8 -5 9 -11 3 -15 -5 -3 -15 1 -22 9 -14 16 -3 20
19 6z m304 -189 l19 -91 -38 -97 -39 -97 -12 62 c-16 77 -65 172 -143 275 -33
44 -60 82 -60 86 0 27 29 25 138 -10 l116 -37 19 -91z m-232 26 c99 -129 131
-195 137 -285 l5 -73 -43 0 c-24 0 -62 10 -88 23 -60 29 -156 124 -220 216
l-52 74 62 43 c35 23 77 54 93 68 17 14 31 25 32 26 1 0 34 -42 74 -92z m673
54 c14 -21 26 -40 26 -43 0 -2 -20 -3 -45 -1 -25 2 -45 8 -45 12 0 7 33 70 36
70 1 0 13 -17 28 -38z m-376 -10 c10 -7 9 -18 -5 -55 -10 -26 -20 -47 -24 -47
-8 0 -19 52 -19 86 0 25 22 32 48 16z m152 -33 c52 -11 96 -22 98 -24 5 -4
-136 -252 -147 -259 -9 -6 -49 44 -86 108 l-29 49 18 51 c31 87 35 96 44 96 4
0 50 -9 102 -21z m276 -49 c11 -5 39 -40 62 -78 50 -85 142 -270 142 -288 0
-19 -106 -37 -186 -31 -89 7 -194 43 -268 91 l-56 38 25 41 c14 23 51 88 83
145 l57 103 60 -7 c33 -3 69 -10 81 -14z m303 -32 l103 -12 -7 -115 c-4 -64
-11 -122 -17 -128 -15 -18 -113 -73 -130 -73 -8 0 -32 38 -57 93 -23 52 -64
131 -92 177 l-49 83 73 -7 c39 -3 119 -12 176 -18z m280 -33 c6 -7 -65 -98
-113 -145 l-46 -44 0 56 c0 30 3 77 7 103 l6 47 71 -7 c39 -4 73 -8 75 -10z
m-947 -182 l21 -22 -71 -113 c-161 -259 -550 -824 -560 -814 -1 2 21 41 48 87
85 141 291 562 384 786 l89 212 34 -57 c19 -31 44 -67 55 -79z m743 -245 c-6
-143 -21 -277 -24 -225 -1 15 -80 263 -97 304 -3 6 14 20 38 31 24 11 52 27
63 36 11 8 22 16 24 16 2 0 0 -73 -4 -162z m24 -639 c24 -249 5 -625 -30 -604
-11 7 -12 291 -2 554 3 100 10 178 14 174 4 -4 12 -60 18 -124z"/>
<path d="M2050 2385 c0 -9 5 -15 11 -13 6 2 11 8 11 13 0 5 -5 11 -11 13 -6 2
-11 -4 -11 -13z"/>
</g>
</svg>
